<?xml version="1.0" encoding="UTF-8"?>
<!-- Generated by Pixelmator Pro 3.5.8 -->
<svg width="1500" height="1500" viewBox="0 0 1500 1500" xmlns="http://www.w3.org/2000/svg">
    <path id="Path" fill="#3a3a39" fill-rule="evenodd" stroke="none" d="M 214.708008 1124.546509 C 208.019196 1124.546509 201.61377 1123.092041 195.695923 1120.187256 C 189.786438 1117.27832 184.739594 1113.398438 180.763824 1108.655762 C 176.63385 1103.904907 173.437378 1098.47876 171.111908 1092.277588 C 168.782288 1086.172241 167.619568 1079.870972 167.619568 1073.473877 C 167.619568 1066.980957 168.782288 1060.683838 171.111908 1054.582642 C 173.437378 1048.473145 176.63385 1042.951172 180.705475 1038.204346 C 184.681244 1033.453491 189.719757 1029.673584 195.633423 1026.768799 C 201.547089 1023.955811 207.944183 1022.505493 214.628845 1022.505493 C 229.17337 1022.505493 241.379944 1027.739868 251.173553 1038.204346 C 252.432129 1039.367188 253.403168 1039.850586 254.27417 1039.750488 C 255.049316 1039.654785 256.016174 1039.075439 257.178925 1037.812744 L 266.293213 1027.835693 C 267.455933 1026.572998 268.135254 1025.506104 268.23526 1024.735107 C 268.326935 1024.055786 267.74765 1023.084778 266.680786 1021.922058 C 260.379547 1015.620789 252.527985 1010.678162 243.126129 1006.99408 C 233.724274 1003.310059 224.226563 1001.472168 214.628845 1001.472168 C 205.035278 1001.472168 195.92099 1003.410034 187.10257 1007.189941 C 178.284149 1010.969849 170.720154 1016.104248 164.32724 1022.601318 C 157.934296 1029.090088 152.895813 1036.75 149.120056 1045.564209 C 145.335999 1054.482666 143.406433 1063.788574 143.406433 1073.473877 C 143.406433 1083.16748 145.335999 1092.473389 149.120056 1101.383545 C 152.895813 1110.302002 157.934296 1117.957764 164.32724 1124.354736 C 170.720154 1130.847656 178.284149 1135.986206 187.10257 1139.761963 C 195.92099 1143.641846 205.035278 1145.583984 214.628845 1145.583984 C 224.226563 1145.583984 233.724274 1143.737793 243.126129 1140.057861 C 252.527985 1136.373779 260.379547 1131.427002 266.680786 1125.129883 C 267.843506 1123.867188 268.426971 1122.800293 268.326935 1122.029297 C 268.23526 1121.345825 267.647644 1120.283203 266.489075 1118.924561 L 257.374786 1109.043457 C 256.212036 1107.880615 255.245209 1107.201416 254.470032 1107.101318 C 253.690735 1107.005493 252.628021 1107.489014 251.365265 1108.655762 C 241.379944 1119.216309 229.17337 1124.546509 214.628845 1124.546509 Z M 419.344299 1138.845093 L 352.268524 1005.118713 C 352.072632 1004.827026 351.785095 1004.343567 351.493378 1003.764282 C 351.20163 1003.276672 350.914093 1002.893311 350.814087 1002.597412 C 350.618195 1002.405701 350.426514 1002.113953 350.234802 1001.826416 C 349.263763 1001.147095 348.972046 1001.147095 348.680328 1001.147095 L 347.71347 1001.147095 L 346.742432 1001.826416 C 346.354858 1002.405701 346.259003 1002.597412 346.163147 1002.697388 C 345.675568 1003.472595 345.579712 1003.664246 345.483856 1003.764282 C 345.000427 1004.639465 344.804535 1004.927002 344.704529 1005.118713 L 277.537109 1138.845093 C 277.05368 1139.807861 277.05368 1140.778809 277.637115 1141.649902 C 278.120544 1142.520874 278.991547 1143.004272 280.154297 1143.004272 L 298.66626 1143.004272 C 300.120728 1143.004272 301.187592 1142.708374 301.866913 1142.133301 C 302.542023 1141.649902 303.32135 1140.487061 304.192352 1138.845093 L 317.082397 1111.63562 L 379.598938 1111.63562 L 392.689026 1138.845093 C 393.464172 1140.487061 394.235168 1141.553955 395.014465 1142.133301 C 395.693787 1142.708374 396.856506 1143.004272 398.310974 1143.004272 L 416.53125 1143.004272 C 417.789795 1143.004272 418.760803 1142.520874 419.344299 1141.649902 C 419.827698 1140.778809 419.827698 1139.903687 419.344299 1138.845093 M 348.296906 1041.855225 L 371.655701 1091.194092 L 325.229858 1091.194092 Z M 486.190796 1022.901428 C 492.683716 1022.901428 498.789124 1023.7724 504.511108 1025.618652 C 510.133057 1027.460693 516.046692 1030.465332 522.360474 1034.632813 C 523.819092 1035.508057 524.981812 1035.699707 525.76532 1035.407959 C 526.44458 1035.120483 527.219727 1034.153564 528.09491 1032.599121 L 534.025269 1022.901428 C 534.804565 1021.542786 535.187988 1020.380066 535.092102 1019.409058 C 534.996277 1018.538025 534.312805 1017.667053 533.050049 1016.983582 C 524.502563 1011.849243 516.625977 1007.97345 509.353699 1005.547974 C 502.085632 1003.126648 493.75061 1001.863892 484.152893 1001.863892 C 476.78894 1001.863892 470.095947 1002.839111 464.090637 1004.776978 C 458.081116 1006.714844 453.230164 1009.232056 449.454407 1012.240967 C 445.6745 1015.241577 442.573853 1018.729736 439.956665 1022.60968 C 437.339478 1026.585449 435.593323 1030.365356 434.526428 1034.153564 C 433.459595 1037.933594 432.976135 1041.713379 432.976135 1045.301636 C 432.976135 1050.635986 433.942993 1055.386963 435.789185 1059.554443 C 437.627075 1063.726074 440.052551 1067.222656 442.961426 1069.835693 C 445.86615 1072.457031 449.454407 1074.786621 453.721924 1076.624512 C 457.985229 1078.570801 462.056885 1080.016846 466.028503 1080.89209 C 470.004272 1081.863037 474.363464 1082.638184 479.210266 1083.313354 C 484.057068 1083.996826 488.124512 1084.580322 491.520996 1085.259521 C 494.817505 1085.934692 498.013977 1086.805664 501.2146 1087.872559 C 504.415222 1088.939453 506.932434 1090.202148 508.774414 1091.656738 C 510.616455 1093.111084 512.070923 1094.8573 513.133667 1096.990967 C 514.2005 1099.120605 514.783936 1101.546143 514.783936 1104.363281 C 514.783936 1117.549316 504.70282 1124.142212 484.540466 1124.142212 C 469.224976 1124.142212 455.559753 1120.266479 443.444885 1112.506592 C 441.894531 1111.631348 440.727661 1111.248047 440.052551 1111.535645 C 439.37323 1111.827271 438.598083 1112.79834 437.727051 1114.252808 L 431.621704 1124.142212 C 430.842346 1125.496704 430.458984 1126.655273 430.55481 1127.522095 C 430.646484 1128.393066 431.329956 1129.259888 432.780273 1130.130859 C 447.516479 1140.17041 465.449219 1145.183838 486.578369 1145.183838 C 494.817505 1145.183838 502.281494 1144.029541 508.966125 1141.712402 C 515.554932 1139.395264 521.001831 1136.302979 525.177673 1132.348022 C 529.357666 1128.488892 532.470764 1124.046387 534.704529 1119.099609 C 536.938354 1114.156982 538.005188 1108.82666 538.005188 1103.296387 C 538.005188 1097.574463 537.134216 1092.527588 535.288025 1088.168457 C 533.437683 1083.805176 531.203857 1080.212646 528.386658 1077.399658 C 525.569458 1074.59082 521.972839 1072.26123 517.601196 1070.227417 C 513.233643 1068.289551 509.066162 1066.830933 504.898682 1065.859863 C 500.72699 1064.893066 495.884399 1064.11377 490.549988 1063.438599 C 485.899048 1062.855103 482.119202 1062.275879 479.114441 1061.692383 C 476.109619 1061.208984 473.004883 1060.433838 469.808411 1059.458618 C 466.607788 1058.487549 464.186462 1057.424805 462.440308 1056.16626 C 460.598267 1054.903564 459.143799 1053.353271 457.985229 1051.31543 C 456.82251 1049.377441 456.239075 1047.143677 456.239075 1044.530762 C 456.239075 1042.396973 456.526611 1040.354858 457.018372 1038.512817 C 457.49762 1036.675049 458.372803 1034.72876 459.727234 1032.695068 C 460.98999 1030.75708 462.731995 1029.106812 464.861633 1027.652344 C 466.995361 1026.297852 469.904236 1025.135254 473.588318 1024.26416 C 477.172363 1023.384827 481.43988 1022.901428 486.190796 1022.901428 M 691.614685 1138.845093 L 624.53894 1005.118713 C 624.343079 1004.827026 624.055542 1004.343567 623.763794 1003.764282 C 623.472107 1003.276672 623.184509 1002.893311 623.084534 1002.597412 C 622.888672 1002.405701 622.69696 1002.113953 622.505249 1001.826416 C 621.534241 1001.147095 621.242493 1001.147095 620.950745 1001.147095 L 619.983887 1001.147095 L 619.017029 1001.826416 C 618.629456 1002.405701 618.52948 1002.597412 618.433594 1002.697388 C 617.950195 1003.472595 617.850159 1003.664246 617.754272 1003.764282 C 617.270874 1004.639465 617.075012 1004.927002 616.974976 1005.118713 L 549.807556 1138.845093 C 549.324097 1139.807861 549.324097 1140.778809 549.907532 1141.649902 C 550.390991 1142.520874 551.262024 1143.004272 552.424744 1143.004272 L 570.940857 1143.004272 C 572.391174 1143.004272 573.458069 1142.708374 574.137329 1142.133301 C 574.812439 1141.649902 575.591797 1140.487061 576.46283 1138.845093 L 589.352844 1111.63562 L 651.869385 1111.63562 L 664.959473 1138.845093 C 665.734619 1140.487061 666.509766 1141.553955 667.284912 1142.133301 C 667.964233 1142.708374 669.126953 1143.004272 670.581421 1143.004272 L 688.801697 1143.004272 C 690.064453 1143.004272 691.03125 1142.520874 691.614685 1141.649902 C 692.098145 1140.778809 692.098145 1139.903687 691.614685 1138.845093 M 620.567383 1041.855225 L 643.926147 1091.194092 L 597.500305 1091.194092 Z M 814.605713 1004.047668 L 764.650024 1004.047668 C 762.995483 1004.047668 761.920227 1004.335266 761.332642 1004.91449 C 760.749207 1005.502136 760.453308 1006.564819 760.453308 1008.210999 L 760.453308 1138.836792 C 760.453308 1140.487061 760.749207 1141.549805 761.332642 1142.133301 C 761.920227 1142.708374 762.995483 1143.004272 764.650024 1143.004272 L 814.605713 1143.004272 C 827.50824 1143.004272 839.243835 1139.999512 850.012634 1133.898315 C 860.773132 1127.897217 869.20813 1119.562134 875.401062 1108.897583 C 881.602234 1098.237061 884.707031 1086.418091 884.707031 1073.523926 C 884.707031 1060.637939 881.602234 1048.810669 875.401062 1038.150269 C 869.20813 1027.489746 860.773132 1019.158997 850.012634 1013.05365 C 839.243835 1007.048279 827.50824 1004.047668 814.605713 1004.047668 M 784.637268 1024.093262 L 814.414001 1024.093262 C 821.394531 1024.093262 827.799988 1025.456055 833.713623 1028.169189 C 839.631409 1030.87793 844.478271 1034.470337 848.362305 1039.02124 C 852.146423 1043.576294 855.151184 1048.910645 857.284973 1054.82019 C 859.418701 1060.729736 860.485535 1067.031006 860.485535 1073.523926 C 860.485535 1080.016846 859.418701 1086.222168 857.284973 1092.135986 C 855.151184 1098.049561 852.146423 1103.37561 848.362305 1107.930664 C 844.478271 1112.48584 839.631409 1116.165649 833.713623 1118.886963 C 827.799988 1121.595947 821.394531 1122.954468 814.414001 1122.954468 L 784.637268 1122.954468 Z M 902.931519 1073.473877 C 902.931519 1083.16748 904.865112 1092.473389 908.649292 1101.383545 C 912.425049 1110.306152 917.459351 1117.961914 923.856445 1124.358887 C 930.24939 1130.851929 937.809204 1135.986206 946.623413 1139.766113 C 955.446045 1143.646118 964.556152 1145.583984 974.145508 1145.583984 C 983.739136 1145.583984 992.945068 1143.646118 1001.76355 1139.766113 C 1010.58606 1135.986206 1018.141724 1130.851929 1024.534668 1124.358887 C 1030.831665 1117.961914 1035.966064 1110.306152 1039.745972 1101.383545 C 1043.521729 1092.473389 1045.463745 1083.16748 1045.463745 1073.473877 C 1045.463745 1063.788574 1043.521729 1054.478516 1039.745972 1045.564209 C 1035.966064 1036.741699 1030.831665 1029.090088 1024.534668 1022.593018 C 1018.141724 1016.100037 1010.58606 1010.961548 1001.76355 1007.185791 C 992.945068 1003.401733 983.739136 1001.468018 974.145508 1001.468018 C 964.556152 1001.468018 955.446045 1003.401733 946.623413 1007.185791 C 937.809204 1010.961548 930.24939 1016.100037 923.856445 1022.593018 C 917.459351 1029.090088 912.425049 1036.741699 908.649292 1045.564209 C 904.865112 1054.478516 902.931519 1063.788574 902.931519 1073.473877 M 927.148682 1073.473877 C 927.148682 1066.980957 928.307251 1060.683838 930.636963 1054.578491 C 932.966553 1048.468994 936.158813 1042.947021 940.230469 1038.196045 C 944.206299 1033.453491 949.244751 1029.673584 955.154297 1026.768799 C 961.063721 1023.955811 967.460815 1022.505493 974.145508 1022.505493 C 981.030151 1022.505493 987.519043 1023.955811 993.432617 1026.768799 C 999.342163 1029.673584 1004.380615 1033.453491 1008.356445 1038.204346 C 1012.328125 1042.951172 1015.524536 1048.473145 1017.854126 1054.582642 C 1020.07959 1060.683838 1021.238159 1066.980957 1021.238159 1073.473877 C 1021.238159 1079.970947 1020.07959 1086.172241 1017.854126 1092.277588 C 1015.524536 1098.383057 1012.328125 1103.904907 1008.356445 1108.655762 C 1004.380615 1113.398438 999.342163 1117.27832 993.432617 1120.187256 C 987.423096 1123.092041 981.030151 1124.546509 974.145508 1124.546509 C 967.460815 1124.546509 961.063721 1123.092041 955.154297 1120.187256 C 949.244751 1117.27832 944.206299 1113.398438 940.230469 1108.655762 C 936.158813 1103.904907 932.966553 1098.47876 930.636963 1092.277588 C 928.307251 1086.172241 927.148682 1079.870972 927.148682 1073.473877 M 1125.746338 1004.047668 L 1075.786377 1004.047668 C 1074.131958 1004.047668 1073.056763 1004.335266 1072.473267 1004.91449 C 1071.889771 1005.502136 1071.593994 1006.564819 1071.593994 1008.210999 L 1071.593994 1138.836792 C 1071.593994 1140.487061 1071.889771 1141.549805 1072.473267 1142.133301 C 1073.056763 1142.708374 1074.131958 1143.004272 1075.786377 1143.004272 L 1125.746338 1143.004272 C 1138.648804 1143.004272 1150.384521 1139.999512 1161.15332 1133.898315 C 1171.917969 1127.897217 1180.344604 1119.562134 1186.541626 1108.897583 C 1192.74292 1098.237061 1195.843506 1086.418091 1195.843506 1073.523926 C 1195.843506 1060.637939 1192.74292 1048.810669 1186.541626 1038.150269 C 1180.344604 1027.489746 1171.917969 1019.158997 1161.15332 1013.05365 C 1150.384521 1007.048279 1138.648804 1004.047668 1125.746338 1004.047668 M 1095.773682 1024.093262 L 1125.554565 1024.093262 C 1132.535156 1024.093262 1138.936401 1025.456055 1144.854248 1028.169189 C 1150.767944 1030.87793 1155.618896 1034.470337 1159.498779 1039.02124 C 1163.282959 1043.576294 1166.29187 1048.910645 1168.425537 1054.82019 C 1170.559326 1060.729736 1171.626221 1067.031006 1171.626221 1073.523926 C 1171.626221 1080.016846 1170.559326 1086.222168 1168.425537 1092.135986 C 1166.29187 1098.049561 1163.282959 1103.37561 1159.498779 1107.930664 C 1155.618896 1112.48584 1150.767944 1116.165649 1144.854248 1118.886963 C 1138.936401 1121.595947 1132.535156 1122.954468 1125.554565 1122.954468 L 1095.773682 1122.954468 Z M 1214.072144 1073.473877 C 1214.072144 1083.16748 1216.005859 1092.473389 1219.785767 1101.383545 C 1223.561401 1110.306152 1228.599976 1117.961914 1234.99292 1124.358887 C 1241.385864 1130.851929 1248.945679 1135.986206 1257.764038 1139.766113 C 1266.582397 1143.646118 1275.692627 1145.583984 1285.286133 1145.583984 C 1294.875488 1145.583984 1304.085693 1143.646118 1312.904175 1139.766113 C 1321.722534 1135.986206 1329.282349 1130.851929 1335.675293 1124.358887 C 1341.968262 1117.961914 1347.106567 1110.306152 1350.886597 1101.383545 C 1354.662354 1092.473389 1356.60022 1083.16748 1356.60022 1073.473877 C 1356.60022 1063.788574 1354.662354 1054.478516 1350.886597 1045.564209 C 1347.106567 1036.741699 1341.968262 1029.090088 1335.675293 1022.593018 C 1329.282349 1016.100037 1321.722534 1010.961548 1312.904175 1007.185791 C 1304.085693 1003.401733 1294.875488 1001.468018 1285.286133 1001.468018 C 1275.692627 1001.468018 1266.582397 1003.401733 1257.764038 1007.185791 C 1248.945679 1010.961548 1241.385864 1016.100037 1234.99292 1022.593018 C 1228.599976 1029.090088 1223.561401 1036.741699 1219.785767 1045.564209 C 1216.005859 1054.478516 1214.072144 1063.788574 1214.072144 1073.473877 M 1238.285156 1073.473877 C 1238.285156 1066.980957 1239.452148 1060.683838 1241.773438 1054.578491 C 1244.103027 1048.468994 1247.295288 1042.947021 1251.371094 1038.196045 C 1255.342773 1033.453491 1260.381226 1029.673584 1266.290771 1026.768799 C 1272.204346 1023.955811 1278.59729 1022.505493 1285.286133 1022.505493 C 1292.166626 1022.505493 1298.659546 1023.955811 1304.573242 1026.768799 C 1310.482788 1029.673584 1315.521362 1033.453491 1319.49292 1038.204346 C 1323.4646 1042.951172 1326.661011 1048.473145 1328.990601 1054.582642 C 1331.216064 1060.683838 1332.378784 1066.980957 1332.378784 1073.473877 C 1332.378784 1079.970947 1331.216064 1086.172241 1328.990601 1092.277588 C 1326.661011 1098.383057 1323.4646 1103.904907 1319.49292 1108.655762 C 1315.521362 1113.398438 1310.482788 1117.27832 1304.573242 1120.187256 C 1298.55957 1123.092041 1292.166626 1124.546509 1285.286133 1124.546509 C 1278.59729 1124.546509 1272.204346 1123.092041 1266.290771 1120.187256 C 1260.381226 1117.27832 1255.342773 1113.398438 1251.371094 1108.655762 C 1247.295288 1103.904907 1244.103027 1098.47876 1241.773438 1092.277588 C 1239.452148 1086.172241 1238.285156 1079.870972 1238.285156 1073.473877 M 931.978882 1262.669556 L 976.208374 1262.669556 C 976.78772 1262.669556 977.175293 1262.56958 977.371216 1262.332031 C 977.562866 1262.086182 977.658691 1261.698608 977.658691 1261.069336 L 977.658691 1257.385254 C 977.658691 1256.755859 977.562866 1256.368408 977.371216 1256.126709 C 977.175293 1255.930786 976.78772 1255.834961 976.208374 1255.834961 L 938.259277 1255.834961 L 938.259277 1231.013306 L 974.412231 1231.013306 C 975.041504 1231.013306 975.429077 1230.91333 975.674927 1230.675781 C 975.916748 1230.434082 976.016724 1230.046509 976.016724 1229.421387 L 976.016724 1225.758179 C 976.016724 1225.128906 975.916748 1224.741211 975.674927 1224.499512 C 975.429077 1224.261963 975.041504 1224.161987 974.412231 1224.161987 L 938.259277 1224.161987 L 938.259277 1200.044678 L 976.208374 1200.044678 C 976.741943 1200.044678 977.129517 1199.948853 977.371216 1199.707153 C 977.562866 1199.469604 977.658691 1199.082031 977.658691 1198.452759 L 977.658691 1194.7854 C 977.658691 1194.160156 977.562866 1193.776855 977.371216 1193.535156 C 977.129517 1193.293457 976.741943 1193.19751 976.208374 1193.19751 L 931.978882 1193.19751 C 931.345459 1193.19751 930.953735 1193.293457 930.757813 1193.535156 C 930.515991 1193.776855 930.416016 1194.160156 930.416016 1194.7854 L 930.416016 1261.069336 C 930.416016 1261.698608 930.515991 1262.086182 930.757813 1262.332031 C 930.953735 1262.56958 931.345459 1262.669556 931.978882 1262.669556 M 953.508057 1184.120728 L 962.618286 1175.669067 C 963.247559 1175.081421 963.347534 1174.406372 962.910034 1173.672852 L 961.022095 1170.65979 C 960.342773 1169.642822 959.663452 1169.546997 959.03418 1170.276367 L 946.627563 1183.391479 C 946.094116 1183.929077 945.898315 1184.362427 946.044067 1184.654175 C 946.144165 1184.945923 946.431641 1185.091797 946.96521 1185.091797 L 950.936768 1185.091797 C 951.911987 1185.091797 952.782959 1184.75 953.508057 1184.120728 M 893.692139 1228.737915 L 877.147156 1228.737915 L 877.147156 1200.036377 L 893.692139 1200.036377 C 896.355225 1200.036377 898.72229 1200.278076 900.80188 1200.811523 C 902.831421 1201.34082 904.477539 1202.065918 905.732056 1202.937012 C 906.990601 1203.807983 908.007446 1204.866455 908.832642 1206.075073 C 909.603638 1207.283691 910.137085 1208.538086 910.474609 1209.796631 C 910.766357 1211.101074 910.912231 1212.455566 910.912231 1213.95166 C 910.912231 1223.807739 905.15686 1228.737915 893.692139 1228.737915 M 877.147156 1235.472534 L 894.175537 1235.472534 C 896.692749 1235.472534 899.109863 1235.234985 901.385376 1234.793213 C 903.652466 1234.359863 905.832031 1233.580566 907.96167 1232.467773 C 910.087036 1231.400879 911.941528 1230.042358 913.504395 1228.446167 C 915.067139 1226.854248 916.334106 1224.774658 917.263428 1222.311646 C 918.197021 1219.848633 918.634521 1217.039795 918.634521 1213.95166 C 918.634521 1210.859375 918.146973 1208.104614 917.217651 1205.641602 C 916.288208 1203.224487 915.017212 1201.240723 913.504395 1199.69458 C 911.983276 1198.181885 910.137085 1196.910767 907.96167 1195.889771 C 905.781982 1194.914551 903.606567 1194.231079 901.385376 1193.789307 C 899.109863 1193.401733 896.738525 1193.210083 894.175537 1193.210083 L 870.837646 1193.210083 C 870.204163 1193.210083 869.762451 1193.305908 869.566528 1193.501709 C 869.320679 1193.697632 869.224792 1194.131104 869.224792 1194.814453 L 869.224792 1261.077637 C 869.224792 1261.702759 869.320679 1262.094482 869.566528 1262.336182 C 869.762451 1262.577881 870.204163 1262.677979 870.837646 1262.677979 L 875.530212 1262.677979 C 876.167786 1262.677979 876.609558 1262.577881 876.855469 1262.336182 C 877.051331 1262.094482 877.147156 1261.702759 877.147156 1261.077637 Z M 824.186768 1205.095703 L 838.872986 1237.4729 L 809.600525 1237.4729 Z M 858.060059 1261.077637 L 825.595337 1192.880859 C 825.157776 1191.963989 824.724365 1191.526367 824.382629 1191.526367 L 823.657471 1191.668091 C 823.119873 1192.305664 823.119873 1192.397339 823.074036 1192.447388 L 790.46344 1261.077637 C 790.267517 1261.510986 790.267517 1261.848633 790.46344 1262.190308 C 790.609253 1262.527832 790.901001 1262.677979 791.334412 1262.677979 L 797.102173 1262.677979 C 797.635681 1262.677979 798.069092 1262.577881 798.360779 1262.336182 C 798.602478 1262.094482 798.894226 1261.702759 799.185913 1261.077637 L 806.9375 1244.207642 L 841.585999 1244.207642 L 849.291687 1261.077637 C 849.583374 1261.702759 849.870972 1262.094482 850.16272 1262.336182 C 850.404419 1262.577881 850.796143 1262.677979 851.275452 1262.677979 L 857.043274 1262.677979 C 857.526672 1262.677979 857.868408 1262.527832 858.060059 1262.190308 C 858.255981 1261.898682 858.255981 1261.510986 858.060059 1261.077637 M 786.320923 1193.210083 L 730.859985 1193.210083 C 730.226501 1193.210083 729.838928 1193.305908 729.597229 1193.551758 C 729.355469 1193.793457 729.259644 1194.185303 729.259644 1194.818726 L 729.259644 1198.823608 C 729.259644 1199.461304 729.355469 1199.848877 729.597229 1200.090576 C 729.793091 1200.336426 730.226501 1200.436523 730.859985 1200.436523 L 754.606323 1200.436523 L 754.606323 1261.077637 C 754.606323 1261.706909 754.702148 1262.094482 754.89801 1262.336182 C 755.093933 1262.577881 755.535645 1262.677979 756.173279 1262.677979 L 761.01178 1262.677979 C 761.599365 1262.677979 761.99115 1262.577881 762.237 1262.336182 C 762.432861 1262.094482 762.528748 1261.706909 762.528748 1261.077637 L 762.528748 1200.436523 L 786.320923 1200.436523 C 786.908508 1200.436523 787.296082 1200.336426 787.533691 1200.090576 C 787.729553 1199.848877 787.825378 1199.461304 787.825378 1198.823608 L 787.825378 1194.818726 C 787.825378 1194.185303 787.729553 1193.743408 787.583679 1193.501709 C 787.387817 1193.305908 786.958557 1193.210083 786.320923 1193.210083 M 693.094177 1205.095703 L 707.776245 1237.4729 L 678.507996 1237.4729 Z M 726.967529 1261.077637 L 694.498596 1192.880859 C 694.061035 1191.963989 693.627625 1191.526367 693.290039 1191.526367 L 692.56073 1191.668091 C 692.027283 1192.305664 692.027283 1192.397339 691.977295 1192.447388 L 659.366699 1261.077637 C 659.170837 1261.510986 659.170837 1261.848633 659.366699 1262.190308 C 659.512573 1262.527832 659.80426 1262.677979 660.237671 1262.677979 L 666.005493 1262.677979 C 666.53894 1262.677979 666.972351 1262.577881 667.26825 1262.336182 C 667.505798 1262.094482 667.801697 1261.702759 668.089233 1261.077637 L 675.840759 1244.207642 L 710.489258 1244.207642 L 718.195007 1261.077637 C 718.486694 1261.702759 718.778442 1262.094482 719.065979 1262.336182 C 719.307678 1262.577881 719.699463 1262.677979 720.182861 1262.677979 L 725.950684 1262.677979 C 726.434082 1262.677979 726.771667 1262.527832 726.967529 1262.190308 C 727.163391 1261.898682 727.163391 1261.510986 726.967529 1261.077637 M 622.125977 1263.957275 C 626.193481 1263.957275 629.927551 1263.323853 633.361572 1262.002808 C 636.753906 1260.73584 639.708618 1258.877197 642.234131 1256.397461 C 644.772156 1253.93042 646.776733 1250.829712 648.197815 1247.008179 C 649.610596 1243.186523 650.298218 1238.881592 650.298218 1234.03479 L 650.298218 1194.793701 C 650.298218 1194.164429 650.202393 1193.776855 650.002319 1193.535156 C 649.76062 1193.293457 649.368835 1193.19751 648.78125 1193.19751 L 643.992798 1193.19751 C 643.351013 1193.19751 642.96344 1193.293457 642.71759 1193.535156 C 642.47583 1193.776855 642.375854 1194.164429 642.375854 1194.793701 L 642.375854 1233.555542 C 642.375854 1241.44458 640.579651 1247.345703 636.949768 1251.171509 C 633.315674 1254.993042 628.373047 1256.926758 622.125977 1256.926758 C 615.874756 1256.926758 610.927917 1254.993042 607.298096 1251.171509 C 603.664001 1247.345703 601.867859 1241.44458 601.867859 1233.555542 L 601.867859 1194.793701 C 601.867859 1194.164429 601.771973 1193.776855 601.580261 1193.535156 C 601.334412 1193.293457 600.946838 1193.19751 600.313354 1193.19751 L 595.587402 1193.19751 C 594.953918 1193.19751 594.566406 1193.293457 594.374695 1193.485107 C 594.128784 1193.730957 594.032959 1194.164429 594.032959 1194.793701 L 594.032959 1234.03479 C 594.032959 1238.881592 594.762268 1243.186523 596.170837 1247.008179 C 597.58783 1250.829712 599.533997 1253.93042 602.063721 1256.397461 C 604.535034 1258.877197 607.493958 1260.73584 610.927917 1262.002808 C 614.324463 1263.323853 618.054321 1263.957275 622.125977 1263.957275 M 551.899658 1198.848633 C 555.717041 1198.848633 559.492798 1199.669678 563.218506 1201.319946 C 566.944275 1203.016113 569.990723 1205.054077 572.411987 1207.479492 C 573.291321 1208.258789 574.070679 1208.258789 574.762512 1207.479492 L 577.742249 1204.228882 C 578.184021 1203.745483 578.42572 1203.35791 578.475708 1203.116211 C 578.525757 1202.870361 578.329834 1202.532715 577.93811 1202.049316 C 574.566589 1198.894531 570.574158 1196.423218 565.977417 1194.631104 C 561.380676 1192.839111 556.688049 1191.91394 551.899658 1191.91394 C 545.510864 1191.91394 539.60968 1193.518433 534.191956 1196.760742 C 528.770081 1200.007202 524.515015 1204.374756 521.368591 1209.900879 C 518.222168 1215.439453 516.621826 1221.453125 516.621826 1227.946045 C 516.621826 1232.767822 517.542847 1237.4021 519.430725 1241.848877 C 521.272705 1246.295532 523.789917 1250.112915 526.93634 1253.305176 C 530.078674 1256.543457 533.804382 1259.123047 538.205261 1261.027588 C 542.560242 1262.982178 547.111206 1263.957275 551.899658 1263.957275 C 556.783936 1263.957275 561.672363 1263.027954 566.460815 1261.123413 C 571.249268 1259.218872 575.345947 1256.685059 578.621582 1253.492798 C 579.696777 1252.434204 580.234375 1251.225708 580.234375 1249.921265 L 580.234375 1228.03772 C 580.234375 1227.458496 580.13855 1227.025024 579.942688 1226.783325 C 579.696777 1226.545776 579.305054 1226.445801 578.721619 1226.445801 L 553.399902 1226.445801 C 552.766418 1226.445801 552.378906 1226.545776 552.141357 1226.783325 C 551.899658 1227.025024 551.803772 1227.412598 551.803772 1228.03772 L 551.803772 1231.796875 C 551.803772 1232.380249 551.899658 1232.767822 552.141357 1232.959595 C 552.378906 1233.197144 552.766418 1233.297119 553.399902 1233.297119 L 572.316162 1233.297119 L 572.316162 1249.337769 C 566.652527 1254.413818 559.880371 1256.926758 551.899658 1256.926758 C 548.173889 1256.926758 544.589844 1256.105835 541.155823 1254.463867 C 537.721863 1252.821777 534.821228 1250.646362 532.449951 1247.987549 C 530.028625 1245.328613 528.09491 1242.232178 526.690491 1238.710693 C 525.290222 1235.180908 524.565063 1231.605103 524.565063 1227.946045 C 524.565063 1224.216187 525.290222 1220.62793 526.690491 1217.085571 C 528.09491 1213.539063 530.028625 1210.438477 532.449951 1207.77124 C 534.821228 1205.099854 537.721863 1202.920288 541.155823 1201.27002 C 544.589844 1199.669678 548.173889 1198.848633 551.899658 1198.848633"/>
    <path id="path1" fill="#1a1919" stroke="none" d="M 383.764343 475.199463 C 381.067993 417.392212 428.073059 399.513672 478.353821 408.38208 C 493.873596 411.115967 489.772766 434.391357 474.253052 431.657593 C 433.415771 424.456177 397.079468 440.409302 408.977661 484.534668 C 413.62439 501.779663 390.857422 500.458618 380.838745 498.69165 C 324.140045 488.693848 286.282562 434.633179 296.284546 377.938599 C 309.453827 303.219727 391.599182 271.28418 452.152832 306.382813 C 489.793579 331.087646 540.862 321.723267 566.692139 282.728149 C 603.632751 224.112427 685.440613 220.553345 727.582214 272.813721 C 744.998169 294.092896 756.729675 320.81897 756.729675 351.345825 C 756.729675 398.859375 729.686829 440.367554 690.633301 461.392578 C 530.893372 530.427002 506.155151 745.948792 671.375305 844.622437 C 787.952515 914.244507 1072.283691 881.054626 1072.283691 676.168335 C 1072.283691 566.013184 992.042725 496.174438 847.385071 496.174438 C 725.831909 496.174438 636.310059 574.410767 629.608704 667.358276 C 683.09845 672.838501 715.213135 712.029602 749.84082 747.303223 C 781.772095 779.830505 804.989197 796.192078 845.934814 761.093445 C 857.903809 750.837219 873.28186 768.774109 861.321167 779.030334 C 755.116882 870.081604 721.285156 690.229431 617.406311 690.383667 C 611.109253 690.391968 605.574829 684.870056 605.574829 678.564636 C 605.574829 564.496216 711.416565 472.536499 847.385071 472.536499 C 1000.369385 472.536499 1095.91748 548.688965 1095.91748 676.168335 C 1095.91748 913.385986 777.850464 935.736267 659.252075 864.90979 C 477.536987 756.384155 504.229797 516.678467 680.314575 440.130005 C 711.783264 422.993286 733.095825 389.649292 733.095825 351.345825 C 733.095825 327.157715 723.827332 305.541016 709.261963 287.75 C 677.013916 247.671143 614.759949 250.642578 586.550232 295.53894 C 553.693726 345.302979 488.01825 357.959595 439.754578 326.503418 C 392.982788 299.598145 329.703644 324.494751 319.555817 382.039429 C 311.895966 425.485474 340.580811 466.935303 383.764343 475.199463"/>
</svg>
